sample_movement
version=1
nRows=5
nColumns=115
inDegrees=yes
endheader
time HIPS_TX HIPS_TY HIPS_TZ HIPS_RX HIPS_RY HIPS_RZ SPINE_TX SPINE_TY SPINE_TZ SPINE_RX SPINE_RY SPINE_RZ CHEST_TX CHEST_TY CHEST_TZ CHEST_RX CHEST_RY CHEST_RZ NECK_TX NECK_TY NECK_TZ NECK_RX NECK_RY NECK_RZ SHOULDER_L_TX SHOULDER_L_TY SHOULDER_L_TZ SHOULDER_L_RX SHOULDER_L_RY SHOULDER_L_RZ ARM_L_TX ARM_L_TY ARM_L_TZ ARM_L_RX ARM_L_RY ARM_L_RZ FOREARM_L_TX FOREARM_L_TY FOREARM_L_TZ FOREARM_L_RX FOREARM_L_RY FOREARM_L_RZ HAND_L_TX HAND_L_TY HAND_L_TZ HAND_L_RX HAND_L_RY HAND_L_RZ SHOULDER_R_TX SHOULDER_R_TY SHOULDER_R_TZ SHOULDER_R_RX SHOULDER_R_RY SHOULDER_R_RZ ARM_R_TX ARM_R_TY ARM_R_TZ ARM_R_RX ARM_R_RY ARM_R_RZ FOREARM_R_TX FOREARM_R_TY FOREARM_R_TZ FOREARM_R_RX FOREARM_R_RY FOREARM_R_RZ HAND_R_TX HAND_R_TY HAND_R_TZ HAND_R_RX HAND_R_RY HAND_R_RZ UPLEG_L_TX UPLEG_L_TY UPLEG_L_TZ UPLEG_L_RX UPLEG_L_RY UPLEG_L_RZ LEG_L_TX LEG_L_TY LEG_L_TZ LEG_L_RX LEG_L_RY LEG_L_RZ FOOT_L_TX FOOT_L_TY FOOT_L_TZ FOOT_L_RX FOOT_L_RY FOOT_L_RZ UPLEG_R_TX UPLEG_R_TY UPLEG_R_TZ UPLEG_R_RX UPLEG_R_RY UPLEG_R_RZ LEG_R_TX LEG_R_TY LEG_R_TZ LEG_R_RX LEG_R_RY LEG_R_RZ FOOT_R_TX FOOT_R_TY FOOT_R_TZ FOOT_R_RX FOOT_R_RY FOOT_R_RZ HEAD_TX HEAD_TY HEAD_TZ HEAD_RX HEAD_RY HEAD_RZ
6.70509577 0.20611200 0.80184102 1.30384195 169.94300195 7.13880031 -177.98828784 0.00000000 0.00000000 0.00000000 -6.92037307 -0.00008777 0.00000969 0.00000000 0.00000000 0.00000000 -2.95763806 7.13711875 1.38552199 0.00000000 0.00000000 0.00000000 9.19933610 -0.00003708 0.00012458 0.00000000 0.00000000 0.00000000 -1.95294901 4.19291764 -9.93280490 0.00000000 0.00000000 0.00000000 -27.75599833 21.10253932 -19.55039836 0.00000000 0.00000000 0.00000000 0.00009176 -72.28663929 0.00018695 0.00000000 0.00000000 0.00000000 -179.24316265 -6.72180570 -48.13588110 0.00000000 0.00000000 0.00000000 -2.31518326 -1.44183504 14.44561361 0.00000000 0.00000000 0.00000000 13.66980240 1.60258927 54.54899509 0.00000000 0.00000000 0.00000000 0.00003206 50.38864903 -0.00001710 0.00000000 0.00000000 0.00000000 -51.58164494 -21.37034455 -13.49382666 0.00000000 0.00000000 0.00000000 -16.68896452 9.65538891 7.03144857 0.00000000 0.00000000 0.00000000 29.91583059 -0.00348558 -0.00670259 0.00000000 0.00000000 0.00000000 -6.67823773 -7.32820637 -0.03138098 0.00000000 0.00000000 0.00000000 -14.08937129 -0.35633001 4.48973112 0.00000000 0.00000000 0.00000000 26.53231704 0.00631844 0.01179237 0.00000000 0.00000000 0.00000000 -5.18315039 -3.37356974 0.05639665 0.00000000 0.00000000 0.00000000 -3.05555505 -15.98266186 -8.30426492
6.71605873 0.20611200 0.80184102 1.30384195 169.94300195 7.13880031 -177.98828784 0.00000000 0.00000000 0.00000000 -6.92037307 -0.00008777 0.00000969 0.00000000 0.00000000 0.00000000 -2.95763806 7.13711875 1.38552199 0.00000000 0.00000000 0.00000000 9.19933610 -0.00003708 0.00012458 0.00000000 0.00000000 0.00000000 -1.95294901 4.19291764 -9.93280490 0.00000000 0.00000000 0.00000000 -27.75599833 21.10253932 -19.55039836 0.00000000 0.00000000 0.00000000 0.00009176 -72.28663929 0.00018695 0.00000000 0.00000000 0.00000000 -179.24316265 -6.72180570 -48.13588110 0.00000000 0.00000000 0.00000000 -2.31518326 -1.44183504 14.44561361 0.00000000 0.00000000 0.00000000 13.66980240 1.60258927 54.54899509 0.00000000 0.00000000 0.00000000 0.00003206 50.38864903 -0.00001710 0.00000000 0.00000000 0.00000000 -51.58164494 -21.37034455 -13.49382666 0.00000000 0.00000000 0.00000000 -16.68896452 9.65538891 7.03144857 0.00000000 0.00000000 0.00000000 29.91583059 -0.00348558 -0.00670259 0.00000000 0.00000000 0.00000000 -6.67823773 -7.32820637 -0.03138098 0.00000000 0.00000000 0.00000000 -14.08937129 -0.35633001 4.48973112 0.00000000 0.00000000 0.00000000 26.53231704 0.00631844 0.01179237 0.00000000 0.00000000 0.00000000 -5.18315039 -3.37356974 0.05639665 0.00000000 0.00000000 0.00000000 -3.05555505 -15.98266186 -8.30426492
6.72703791 0.20624401 0.80169702 1.30468202 169.92054105 7.10370034 -177.83991163 0.00000000 0.00000000 0.00000000 -6.80534138 0.00007066 -0.00003734 0.00000000 0.00000000 0.00000000 -3.08506192 7.33419615 1.32669153 0.00000000 0.00000000 0.00000000 9.19943247 -0.00000970 -0.00002322 0.00000000 0.00000000 0.00000000 -2.24405281 2.59768277 -9.67020762 0.00000000 0.00000000 0.00000000 -13.11025434 21.19720126 -28.74906124 0.00000000 0.00000000 0.00000000 0.00008261 -69.85146456 0.00005464 0.00000000 0.00000000 0.00000000 179.96943559 -9.69434414 -49.54372133 0.00000000 0.00000000 0.00000000 -2.49739985 -0.73887978 14.35516687 0.00000000 0.00000000 0.00000000 13.79393619 1.38793879 54.55072647 0.00000000 0.00000000 0.00000000 0.00001354 49.48073607 0.00003367 0.00000000 0.00000000 0.00000000 -55.40610051 -17.45360342 -9.42207147 0.00000000 0.00000000 0.00000000 -16.49567606 9.98800730 6.86846052 0.00000000 0.00000000 0.00000000 29.96790558 -0.00353177 -0.00658639 0.00000000 0.00000000 0.00000000 -6.69032135 -6.58971441 -0.02884446 0.00000000 0.00000000 0.00000000 -13.70838223 -0.28393567 4.36694299 0.00000000 0.00000000 0.00000000 26.30697738 0.00621074 0.01196171 0.00000000 0.00000000 0.00000000 -5.89587489 -2.86806038 0.01010806 0.00000000 0.00000000 0.00000000 -0.90206002 -15.72462671 -6.05922060
6.73801088 0.20624401 0.80169702 1.30468202 169.92054105 7.10370034 -177.83991163 0.00000000 0.00000000 0.00000000 -6.80534138 0.00007066 -0.00003734 0.00000000 0.00000000 0.00000000 -3.08506192 7.33419615 1.32669153 0.00000000 0.00000000 0.00000000 9.19943247 -0.00000970 -0.00002322 0.00000000 0.00000000 0.00000000 -2.24405281 2.59768277 -9.67020762 0.00000000 0.00000000 0.00000000 -13.11025434 21.19720126 -28.74906124 0.00000000 0.00000000 0.00000000 0.00008261 -69.85146456 0.00005464 0.00000000 0.00000000 0.00000000 179.96943559 -9.69434414 -49.54372133 0.00000000 0.00000000 0.00000000 -2.49739985 -0.73887978 14.35516687 0.00000000 0.00000000 0.00000000 13.79393619 1.38793879 54.55072647 0.00000000 0.00000000 0.00000000 0.00001354 49.48073607 0.00003367 0.00000000 0.00000000 0.00000000 -55.40610051 -17.45360342 -9.42207147 0.00000000 0.00000000 0.00000000 -16.49567606 9.98800730 6.86846052 0.00000000 0.00000000 0.00000000 29.96790558 -0.00353177 -0.00658639 0.00000000 0.00000000 0.00000000 -6.69032135 -6.58971441 -0.02884446 0.00000000 0.00000000 0.00000000 -13.70838223 -0.28393567 4.36694299 0.00000000 0.00000000 0.00000000 26.30697738 0.00621074 0.01196171 0.00000000 0.00000000 0.00000000 -5.89587489 -2.86806038 0.01010806 0.00000000 0.00000000 0.00000000 -0.90206002 -15.72462671 -6.05922060
6.74898291 0.20624401 0.80169702 1.30468202 169.92054105 7.10370034 -177.83991163 0.00000000 0.00000000 0.00000000 -6.80534138 0.00007066 -0.00003734 0.00000000 0.00000000 0.00000000 -3.08506192 7.33419615 1.32669153 0.00000000 0.00000000 0.00000000 9.19943247 -0.00000970 -0.00002322 0.00000000 0.00000000 0.00000000 -2.24405281 2.59768277 -9.67020762 0.00000000 0.00000000 0.00000000 -13.11025434 21.19720126 -28.74906124 0.00000000 0.00000000 0.00000000 0.00008261 -69.85146456 0.00005464 0.00000000 0.00000000 0.00000000 179.96943559 -9.69434414 -49.54372133 0.00000000 0.00000000 0.00000000 -2.49739985 -0.73887978 14.35516687 0.00000000 0.00000000 0.00000000 13.79393619 1.38793879 54.55072647 0.00000000 0.00000000 0.00000000 0.00001354 49.48073607 0.00003367 0.00000000 0.00000000 0.00000000 -55.40610051 -17.45360342 -9.42207147 0.00000000 0.00000000 0.00000000 -16.49567606 9.98800730 6.86846052 0.00000000 0.00000000 0.00000000 29.96790558 -0.00353177 -0.00658639 0.00000000 0.00000000 0.00000000 -6.69032135 -6.58971441 -0.02884446 0.00000000 0.00000000 0.00000000 -13.70838223 -0.28393567 4.36694299 0.00000000 0.00000000 0.00000000 26.30697738 0.00621074 0.01196171 0.00000000 0.00000000 0.00000000 -5.89587489 -2.86806038 0.01010806 0.00000000 0.00000000 0.00000000 -0.90206002 -15.72462671 -6.05922060
